:SAMPLES-PER-SECOND 30
:FRAME-RANGE 1-3358
:FULLY-SPECIFIED
:DEGREES
420
root  -88.0043 37.8366 33.7205 4.01392 -75.4224 -0.109436
RightUpLeg  -28.8468 3.45976 -9.43617
RightLeg  44.7032 -0.877829 -1.23288
RightFoot  -8.90353 -0.224509 7.69188
RightToes  -1.11029e-010 1.2921e-014 -6.02303e-014
Spine  1.2223 -3.08301 -1.57724
Spine1  7.83285 -2.90703 -1.51521
HEad  60.0433 57.0782 15.4867
LeftShoulder1  2.10023 -3.9559 -22.9011
LeftArm  3.30767 -7.06017 -43.8309
LeftForeArm  36.7179 2.78865 -14.1953
LeftHand  -0.0401094 4.94961 4.71464
RightShoulder  1.51362 1.83385 23.2644
RightArm  -27.6127 -8.94725 46.5224
RightForeArm  66.3909 3.87364 4.25044
RightHand  0.452977 -8.11839 -19.7774
LeftUpLeg  -20.13 -10.4779 -1.77422
LeftLeg  28.2508 -0.0977462 0.306187
LeftFoot  -8.56892 0.024244 1.12742
LeftToes  -1.90334e-010 -8.83595e-011 4.99953e-011
421
root  -89.1359 37.9665 33.3629 4.98187 -71.3676 -0.635468
RightUpLeg  -27.8937 8.24193 -13.2032
RightLeg  33.7717 1.77366 1.03424
RightFoot  -8.53548 -0.238559 7.35838
RightToes  -1.11029e-010 1.2921e-014 -6.02303e-014
Spine  0.870996 -3.38888 -1.56195
Spine1  7.61062 -3.36111 -0.634905
HEad  56.1975 57.0877 13.5508
LeftShoulder1  2.01376 -3.72704 -22.5947
LeftArm  3.77349 -5.59957 -43.9601
LeftForeArm  35.3231 1.63288 -14.1717
LeftHand  -0.0451307 4.83756 4.98099
RightShoulder  1.40856 1.44092 23.4854
RightArm  -28.6407 -10.2606 45.7542
RightForeArm  66.0915 2.18429 3.53415
RightHand  0.402431 -7.85333 -19.5442
LeftUpLeg  -18.8874 -12.5392 -0.596484
LeftLeg  27.6165 -1.87603 -0.705791
LeftFoot  -9.58656 0.0423022 0.999951
LeftToes  -1.90334e-010 -8.83595e-011 4.99953e-011
422
root  -90.2329 37.9677 32.9701 4.73047 -67.2461 -0.114441
RightUpLeg  -27.5148 15.8342 -18.4142
RightLeg  26.5745 4.16811 2.04652
RightFoot  -7.22954 -0.303059 7.06167
RightToes  -1.11029e-010 1.2921e-014 -6.02303e-014
Spine  0.895671 -3.45797 -1.45619
Spine1  7.17415 -3.50832 -0.142913
HEad  51.8955 56.6699 11.2902
LeftShoulder1  1.91818 -3.45783 -22.3035
LeftArm  2.62439 -4.19338 -44.3554
LeftForeArm  36.0738 1.08374 -13.7943
LeftHand  -0.0537827 4.65572 5.29968
RightShoulder  1.32863 1.11609 23.864
RightArm  -29.7332 -11.4299 44.6187
RightForeArm  65.5607 0.0596233 2.65614
RightHand  0.368365 -7.71777 -19.0307
LeftUpLeg  -18.0908 -14.5657 0.413066
LeftLeg  27.9383 -3.82813 -1.84376
LeftFoot  -10.9512 0.0637502 0.593768
LeftToes  -1.90334e-010 -8.83595e-011 4.99953e-011
423
root  -91.2977 37.8397 32.5378 3.45477 -62.7752 1.34579
RightUpLeg  -28.0435 22.8915 -23.8629
RightLeg  24.1547 8.37666 3.87993
RightFoot  -4.86272 -0.322496 5.1087
RightToes  -1.11029e-010 1.2921e-014 -6.02303e-014
Spine  1.26705 -3.54494 -1.36343
Spine1  6.76396 -3.53559 -0.339663
HEad  47.47 56.0083 9.03942
LeftShoulder1  1.73583 -2.79447 -22.401
LeftArm  4.58987 -3.64285 -44.1287
LeftForeArm  34.4462 0.0734287 -14.0974
LeftHand  -0.0499172 4.78392 5.6262
RightShoulder  1.23906 0.778389 24.1536
RightArm  -31.1663 -12.3707 43.9728
RightForeArm  64.9335 -2.46081 1.51284
RightHand  0.395741 -7.95909 -18.5304
LeftUpLeg  -17.9833 -17.3815 1.08345
LeftLeg  29.2866 -5.41896 -2.92555
LeftFoot  -12.2902 0.0721162 -0.198703
LeftToes  -1.90334e-010 -8.83595e-011 4.99953e-011
424
root  -92.3347 37.6158 32.0641 2.38489 -57.6142 2.88696
RightUpLeg  -27.0773 23.376 -26.3867
RightLeg  23.7352 13.4217 6.17996
RightFoot  -3.52848 -0.542789 7.58478
RightToes  -1.11029e-010 1.2921e-014 -6.02303e-014
Spine  1.5555 -3.58461 -1.24354
Spine1  6.37444 -3.51337 -0.671453
HEad  42.5344 55.2485 5.79761
LeftShoulder1  1.65502 -2.43572 -22.7918
LeftArm  5.09037 -3.18762 -44.0121
LeftForeArm  34.3663 -0.465016 -14.0918
LeftHand  -0.0404452 5.00947 5.80981
RightShoulder  1.16604 0.525727 24.2377
RightArm  -32.7353 -13.3172 43.585
RightForeArm  63.8537 -4.9795 0.223573
RightHand  0.512717 -8.69593 -18.5223
LeftUpLeg  -18.9028 -20.1631 1.86718
LeftLeg  31.5898 -7.67765 -4.70853
LeftFoot  -13.5651 0.0632089 -0.935733
LeftToes  -1.90334e-010 -8.83595e-011 4.99953e-011
425
root  -93.4669 37.2201 31.4259 1.88257 -51.7669 4.22302
RightUpLeg  -24.6197 20.7503 -26.6415
RightLeg  24.1435 14.5995 6.85201
RightFoot  -7.34144 -0.76933 20.3867
RightToes  -1.11029e-010 1.2921e-014 -6.02303e-014
Spine  1.55936 -3.51219 -1.89449
Spine1  6.10493 -3.37831 -1.10907
HEad  38.1365 53.8954 2.52223
LeftShoulder1  1.59892 -2.18209 -23.1184
LeftArm  5.5444 -3.12874 -44.0586
LeftForeArm  34.3586 -0.596589 -14.1412
LeftHand  -0.0264555 5.3268 4.96468
RightShoulder  0.932456 -0.329753 25.1175
RightArm  -34.4033 -13.5666 42.7413
RightForeArm  64.3474 -4.77308 -0.877173
RightHand  0.468745 -8.60317 -17.5447
LeftUpLeg  -20.9479 -22.2632 3.24637
LeftLeg  34.8821 -10.7096 -7.56751
LeftFoot  -15.3251 0.0430272 -1.40511
LeftToes  -1.90334e-010 -8.83595e-011 4.99953e-011
426
root  -94.5194 36.9811 30.7372 2.46106 -46.3478 4.89645
RightUpLeg  -23.3426 16.9824 -24.9668
RightLeg  26.8163 13.5382 7.13009
RightFoot  -11.7499 -0.0124541 18.895
RightToes  -1.11029e-010 1.2921e-014 -6.02303e-014
Spine  1.59579 -2.98413 -1.74683
Spine1  5.79638 -2.81348 -1.39097
HEad  34.3717 52.2964 -0.158735
LeftShoulder1  1.43425 -1.6572 -22.8654
LeftArm  6.1673 -2.89016 -44.4754
LeftForeArm  34.2416 -1.3226 -14.1063
LeftHand  -0.0257272 5.35027 4.73629
RightShoulder  1.30527 1.01187 24.0539
RightArm  -33.2277 -15.5127 43.051
RightForeArm  60.9698 -5.02219 -0.116435
RightHand  0.427696 -8.63254 -16.0318
LeftUpLeg  -23.206 -23.8385 5.45918
LeftLeg  36.5424 -13.8469 -10.4284
LeftFoot  -16.0527 0.0154929 -1.96279
LeftToes  -1.90334e-010 -8.83595e-011 4.99953e-011
427
root  -95.4631 36.9624 30.0037 3.71082 -42.1133 4.81885
RightUpLeg  -22.569 12.7733 -22.2488
RightLeg  28.1075 12.0162 6.66857
RightFoot  -14.1447 0.289522 15.6873
RightToes  -1.11029e-010 1.2921e-014 -6.02303e-014
Spine  2.17601 -2.12637 -0.0318348
Spine1  5.31493 -1.58792 -2.84865
HEad  30.1406 51.2762 -3.02692
LeftShoulder1  1.25877 -1.09673 -22.5371
LeftArm  8.1636 -2.88038 -44.4894
LeftForeArm  32.3018 -2.35571 -14.2545
LeftHand  -0.0321145 5.17448 4.79655
RightShoulder  1.42974 1.35452 24.5458
RightArm  -35.3102 -14.4514 43.4534
RightForeArm  63.096 -4.69425 -1.59307
RightHand  0.462803 -9.04402 -15.4032
LeftUpLeg  -25.3031 -24.8991 8.42557
LeftLeg  36.7296 -16.6585 -12.5934
LeftFoot  -15.4407 -0.0258545 -3.30745
LeftToes  -1.90334e-010 -8.83595e-011 4.99953e-011
428
root  -96.2919 37.1722 29.3185 5.60089 -38.1331 4.18787
RightUpLeg  -21.4564 9.91728 -19.5855
RightLeg  26.5494 10.281 5.33048
RightFoot  -14.7355 0.308315 13.7357
RightToes  -1.11029e-010 1.2921e-014 -6.02303e-014
Spine  2.4664 -1.42054 2.1873
Spine1  5.25119 -0.625673 -3.73239
HEad  26.4725 51.2012 -5.82552
LeftShoulder1  1.13561 -0.621645 -22.8762
LeftArm  9.05503 -2.79696 -44.1553
LeftForeArm  31.054 -2.93011 -14.2707
LeftHand  -0.0333435 5.15028 5.13035
RightShoulder  1.53035 1.75671 24.0881
RightArm  -36.6037 -12.8102 44.3841
RightForeArm  65.938 -4.42902 -2.53205
RightHand  0.546187 -10.0262 -14.3286
LeftUpLeg  -27.7068 -26.3263 11.9377
LeftLeg  35.7385 -18.6323 -13.5491
LeftFoot  -13.2219 -0.0107819 -5.47858
LeftToes  -1.90334e-010 -8.83595e-011 4.99953e-011
429
root  -96.9962 37.4697 28.717 7.46906 -34.1813 3.74448
RightUpLeg  -21.1044 7.67996 -17.4014
RightLeg  25.2645 8.24788 4.01031
RightFoot  -14.1476 0.21098 12.503
RightToes  -1.11029e-010 1.2921e-014 -6.02303e-014
Spine  2.6077 -0.931553 4.07765
Spine1  4.95016 -0.106638 -3.80784
HEad  23.4462 52.0105 -7.85312
LeftShoulder1  1.10066 -0.476264 -23.0736
LeftArm  8.26217 -1.96843 -44.1215
LeftForeArm  31.8269 -2.67105 -14.1878
LeftHand  -0.0322678 5.17796 5.15259
RightShoulder  1.5956 2.03531 23.7228
RightArm  -36.1752 -11.9595 44.5592
RightForeArm  67.8385 -4.42115 -2.16899
RightHand  0.52651 -10.4002 -12.8995
LeftUpLeg  -30.0331 -27.7937 14.6922
LeftLeg  33.6018 -17.7167 -11.9575
LeftFoot  -10.4203 0.12751 -8.0984
LeftToes  -1.90334e-010 -8.83595e-011 4.99953e-011
430
root  -97.6712 37.7767 28.1558 8.57855 -30.7637 3.68414
RightUpLeg  -20.6603 5.43805 -15.5372
RightLeg  24.0892 6.89416 3.14706
RightFoot  -13.1444 0.088606 11.2856
RightToes  -1.11029e-010 1.2921e-014 -6.02303e-014
Spine  2.78588 -0.585412 4.8808
Spine1  4.9626 0.333306 -4.07207
HEad  21.2118 53.6034 -9.47977
LeftShoulder1  1.05925 -0.313244 -23.2488
LeftArm  6.97259 -0.918385 -44.6482
LeftForeArm  33.2832 -1.55543 -14.1991
LeftHand  -0.031342 5.20067 5.11163
RightShoulder  1.59614 2.02613 23.7878
RightArm  -34.1074 -8.88695 42.6495
RightForeArm  68.4003 -4.57307 -1.16664
RightHand  0.337481 -8.6431 -12.9753
LeftUpLeg  -30.7484 -27.6031 14.9057
LeftLeg  31.6611 -12.7773 -8.03428
LeftFoot  -8.80572 0.192011 -6.2892
LeftToes  -1.90334e-010 -8.83595e-011 4.99953e-011
